<?xml version="1.0" encoding="UTF-8" standalone="no"?>
<!DOCTYPE svg PUBLIC "-//W3C//DTD SVG 1.1//EN"
 "http://www.w3.org/Graphics/SVG/1.1/DTD/svg11.dtd">
<!-- Generated by graphviz version 10.0.1 (0)
 -->
<!-- Title: arbitration Pages: 1 -->
<svg width="2002pt" height="171pt"
 viewBox="0.00 0.00 2001.80 170.65" xmlns="http://www.w3.org/2000/svg" xmlns:xlink="http://www.w3.org/1999/xlink">
<g id="graph0" class="graph" transform="scale(1 1) rotate(0) translate(4 166.65)">
<title>arbitration</title>
<polygon fill="white" stroke="none" points="-4,4 -4,-166.65 1997.8,-166.65 1997.8,4 -4,4"/>
<!-- parties -->
<g id="node1" class="node">
<title>parties</title>
<path fill="#ff5722" stroke="black" d="M132,-87.65C132,-87.65 12,-87.65 12,-87.65 6,-87.65 0,-81.65 0,-75.65 0,-75.65 0,-42.35 0,-42.35 0,-36.35 6,-30.35 12,-30.35 12,-30.35 132,-30.35 132,-30.35 138,-30.35 144,-36.35 144,-42.35 144,-42.35 144,-75.65 144,-75.65 144,-81.65 138,-87.65 132,-87.65"/>
<text text-anchor="middle" x="72" y="-61.85" font-family="Arial" font-size="12.00" fill="white">Artist/Venue</text>
<text text-anchor="middle" x="72" y="-47.6" font-family="Arial" font-size="12.00" fill="white">Dispute Initiators</text>
</g>
<!-- dispute -->
<g id="node2" class="node">
<title>dispute</title>
<path fill="#2196f3" stroke="black" d="M360.75,-87.65C360.75,-87.65 240.75,-87.65 240.75,-87.65 234.75,-87.65 228.75,-81.65 228.75,-75.65 228.75,-75.65 228.75,-42.35 228.75,-42.35 228.75,-36.35 234.75,-30.35 240.75,-30.35 240.75,-30.35 360.75,-30.35 360.75,-30.35 366.75,-30.35 372.75,-36.35 372.75,-42.35 372.75,-42.35 372.75,-75.65 372.75,-75.65 372.75,-81.65 366.75,-87.65 360.75,-87.65"/>
<text text-anchor="middle" x="300.75" y="-61.85" font-family="Arial" font-size="12.00" fill="white">Dispute Filing</text>
<text text-anchor="middle" x="300.75" y="-47.6" font-family="Arial" font-size="12.00" fill="white">Contract Details</text>
</g>
<!-- parties&#45;&gt;dispute -->
<g id="edge1" class="edge">
<title>parties&#45;&gt;dispute</title>
<path fill="none" stroke="#666666" stroke-width="1.5" d="M144.32,-57.88C161.82,-57.83 183.08,-57.95 216.15,-58.22"/>
<polygon fill="#666666" stroke="#666666" stroke-width="1.5" points="216.06,-61.72 226.08,-58.31 216.12,-54.72 216.06,-61.72"/>
<text text-anchor="middle" x="186.38" y="-62.25" font-family="Arial" font-size="10.00">File Claim</text>
</g>
<!-- evidence -->
<g id="node3" class="node">
<title>evidence</title>
<path fill="#2196f3" stroke="black" d="M623.55,-87.65C623.55,-87.65 502.5,-87.65 502.5,-87.65 496.5,-87.65 490.5,-81.65 490.5,-75.65 490.5,-75.65 490.5,-42.35 490.5,-42.35 490.5,-36.35 496.5,-30.35 502.5,-30.35 502.5,-30.35 623.55,-30.35 623.55,-30.35 629.55,-30.35 635.55,-36.35 635.55,-42.35 635.55,-42.35 635.55,-75.65 635.55,-75.65 635.55,-81.65 629.55,-87.65 623.55,-87.65"/>
<text text-anchor="middle" x="563.03" y="-61.85" font-family="Arial" font-size="12.00" fill="white">Evidence Collection</text>
<text text-anchor="middle" x="563.03" y="-47.6" font-family="Arial" font-size="12.00" fill="white">5&#45;Day Window</text>
</g>
<!-- dispute&#45;&gt;evidence -->
<g id="edge2" class="edge">
<title>dispute&#45;&gt;evidence</title>
<path fill="none" stroke="#666666" stroke-width="1.5" d="M372.95,-57.22C397.16,-57 425.68,-57.21 478.27,-57.87"/>
<polygon fill="#666666" stroke="#666666" stroke-width="1.5" points="477.93,-61.37 487.97,-58 478.02,-54.37 477.93,-61.37"/>
<text text-anchor="middle" x="431.62" y="-62.25" font-family="Arial" font-size="10.00">Submit Evidence</text>
</g>
<!-- ipfs -->
<g id="node4" class="node">
<title>ipfs</title>
<path fill="#ffc107" stroke="black" d="M874.05,-87.65C874.05,-87.65 754.05,-87.65 754.05,-87.65 748.05,-87.65 742.05,-81.65 742.05,-75.65 742.05,-75.65 742.05,-42.35 742.05,-42.35 742.05,-36.35 748.05,-30.35 754.05,-30.35 754.05,-30.35 874.05,-30.35 874.05,-30.35 880.05,-30.35 886.05,-36.35 886.05,-42.35 886.05,-42.35 886.05,-75.65 886.05,-75.65 886.05,-81.65 880.05,-87.65 874.05,-87.65"/>
<text text-anchor="middle" x="814.05" y="-61.85" font-family="Arial" font-size="12.00">IPFS Storage</text>
<text text-anchor="middle" x="814.05" y="-47.6" font-family="Arial" font-size="12.00">Secure Evidence</text>
</g>
<!-- evidence&#45;&gt;ipfs -->
<g id="edge3" class="edge">
<title>evidence&#45;&gt;ipfs</title>
<path fill="none" stroke="#666666" stroke-width="1.5" d="M635.79,-55.83C657.72,-55.54 684,-55.92 729.69,-56.96"/>
<polygon fill="#666666" stroke="#666666" stroke-width="1.5" points="729.39,-60.45 739.47,-57.18 729.55,-53.45 729.39,-60.45"/>
<text text-anchor="middle" x="688.8" y="-62.25" font-family="Arial" font-size="10.00">Store Securely</text>
</g>
<!-- ai_review -->
<g id="node5" class="node">
<title>ai_review</title>
<path fill="#4caf50" stroke="black" d="M1169.55,-87.65C1169.55,-87.65 1049.55,-87.65 1049.55,-87.65 1043.55,-87.65 1037.55,-81.65 1037.55,-75.65 1037.55,-75.65 1037.55,-42.35 1037.55,-42.35 1037.55,-36.35 1043.55,-30.35 1049.55,-30.35 1049.55,-30.35 1169.55,-30.35 1169.55,-30.35 1175.55,-30.35 1181.55,-36.35 1181.55,-42.35 1181.55,-42.35 1181.55,-75.65 1181.55,-75.65 1181.55,-81.65 1175.55,-87.65 1169.55,-87.65"/>
<text text-anchor="middle" x="1109.55" y="-61.85" font-family="Arial" font-size="12.00" fill="white">AI Review</text>
<text text-anchor="middle" x="1109.55" y="-47.6" font-family="Arial" font-size="12.00" fill="white">Contract Analysis</text>
</g>
<!-- ipfs&#45;&gt;ai_review -->
<g id="edge4" class="edge">
<title>ipfs&#45;&gt;ai_review</title>
<path fill="none" stroke="#666666" stroke-width="1.5" d="M886.46,-36.2C921.51,-28.85 953.6,-31.37 1025.4,-43.77"/>
<polygon fill="#666666" stroke="#666666" stroke-width="1.5" points="1024.59,-47.18 1035.04,-45.45 1025.79,-40.28 1024.59,-47.18"/>
<text text-anchor="middle" x="961.8" y="-62.25" font-family="Arial" font-size="10.00">Analyze Contract Terms</text>
</g>
<!-- decision -->
<g id="node6" class="node">
<title>decision</title>
<path fill="#9c27b0" stroke="black" d="M1439.55,-109.03C1439.55,-109.03 1319.55,-109.03 1319.55,-109.03 1313.55,-109.03 1307.55,-103.03 1307.55,-97.03 1307.55,-97.03 1307.55,-20.97 1307.55,-20.97 1307.55,-14.97 1313.55,-8.98 1319.55,-8.98 1319.55,-8.98 1439.55,-8.98 1439.55,-8.98 1445.55,-8.98 1451.55,-14.98 1451.55,-20.98 1451.55,-20.98 1451.55,-97.03 1451.55,-97.03 1451.55,-103.03 1445.55,-109.03 1439.55,-109.03"/>
<text text-anchor="middle" x="1379.55" y="-83.22" font-family="Arial" font-size="12.00" fill="white">Resolution Options</text>
<text text-anchor="middle" x="1379.55" y="-68.97" font-family="Arial" font-size="12.00" fill="white">&#45; Full Payment</text>
<text text-anchor="middle" x="1379.55" y="-54.73" font-family="Arial" font-size="12.00" fill="white">&#45; Partial Payment</text>
<text text-anchor="middle" x="1379.55" y="-40.48" font-family="Arial" font-size="12.00" fill="white">&#45; Refund</text>
<text text-anchor="middle" x="1379.55" y="-26.23" font-family="Arial" font-size="12.00" fill="white">&#45; Penalties</text>
</g>
<!-- ai_review&#45;&gt;decision -->
<g id="edge5" class="edge">
<title>ai_review&#45;&gt;decision</title>
<path fill="none" stroke="#666666" stroke-width="1.5" d="M1181.99,-56.8C1238.06,-55.14 1269.81,-54.44 1295.12,-54.69"/>
<polygon fill="#666666" stroke="#666666" stroke-width="1.5" points="1294.78,-58.18 1304.84,-54.85 1294.9,-51.19 1294.78,-58.18"/>
<text text-anchor="middle" x="1244.55" y="-62.25" font-family="Arial" font-size="10.00">Generate Decision</text>
</g>
<!-- appeal -->
<g id="node7" class="node">
<title>appeal</title>
<path fill="#9c27b0" stroke="black" d="M1713.3,-162.65C1713.3,-162.65 1593.3,-162.65 1593.3,-162.65 1587.3,-162.65 1581.3,-156.65 1581.3,-150.65 1581.3,-150.65 1581.3,-117.35 1581.3,-117.35 1581.3,-111.35 1587.3,-105.35 1593.3,-105.35 1593.3,-105.35 1713.3,-105.35 1713.3,-105.35 1719.3,-105.35 1725.3,-111.35 1725.3,-117.35 1725.3,-117.35 1725.3,-150.65 1725.3,-150.65 1725.3,-156.65 1719.3,-162.65 1713.3,-162.65"/>
<text text-anchor="middle" x="1653.3" y="-136.85" font-family="Arial" font-size="12.00" fill="white">Appeal Window</text>
<text text-anchor="middle" x="1653.3" y="-122.6" font-family="Arial" font-size="12.00" fill="white">2&#45;Day Period</text>
</g>
<!-- decision&#45;&gt;appeal -->
<g id="edge6" class="edge">
<title>decision&#45;&gt;appeal</title>
<path fill="none" stroke="#666666" stroke-width="1.5" d="M1451.78,-73.48C1512.64,-85.81 1545.81,-93.14 1572.09,-101.16"/>
<polygon fill="#666666" stroke="#666666" stroke-width="1.5" points="1571,-104.49 1581.59,-104.22 1573.15,-97.82 1571,-104.49"/>
<text text-anchor="middle" x="1516.43" y="-117.25" font-family="Arial" font-size="10.00">Challenge Decision</text>
</g>
<!-- ticket_refund -->
<g id="node8" class="node">
<title>ticket_refund</title>
<path fill="#e91e63" stroke="black" d="M1713.3,-87.65C1713.3,-87.65 1593.3,-87.65 1593.3,-87.65 1587.3,-87.65 1581.3,-81.65 1581.3,-75.65 1581.3,-75.65 1581.3,-42.35 1581.3,-42.35 1581.3,-36.35 1587.3,-30.35 1593.3,-30.35 1593.3,-30.35 1713.3,-30.35 1713.3,-30.35 1719.3,-30.35 1725.3,-36.35 1725.3,-42.35 1725.3,-42.35 1725.3,-75.65 1725.3,-75.65 1725.3,-81.65 1719.3,-87.65 1713.3,-87.65"/>
<text text-anchor="middle" x="1653.3" y="-61.85" font-family="Arial" font-size="12.00" fill="white">Ticket Refunds</text>
<text text-anchor="middle" x="1653.3" y="-47.6" font-family="Arial" font-size="12.00" fill="white">Batch Processing</text>
</g>
<!-- decision&#45;&gt;ticket_refund -->
<g id="edge7" class="edge">
<title>decision&#45;&gt;ticket_refund</title>
<path fill="none" stroke="#666666" stroke-width="1.5" d="M1451.84,-57.95C1510.4,-57.12 1543.01,-56.78 1569.03,-56.91"/>
<polygon fill="#666666" stroke="#666666" stroke-width="1.5" points="1568.68,-60.41 1578.71,-57 1568.74,-53.41 1568.68,-60.41"/>
<text text-anchor="middle" x="1516.43" y="-62.25" font-family="Arial" font-size="10.00">If Event Disrupted</text>
</g>
<!-- execution -->
<g id="node9" class="node">
<title>execution</title>
<path fill="#795548" stroke="black" d="M1981.8,-87.65C1981.8,-87.65 1861.8,-87.65 1861.8,-87.65 1855.8,-87.65 1849.8,-81.65 1849.8,-75.65 1849.8,-75.65 1849.8,-42.35 1849.8,-42.35 1849.8,-36.35 1855.8,-30.35 1861.8,-30.35 1861.8,-30.35 1981.8,-30.35 1981.8,-30.35 1987.8,-30.35 1993.8,-36.35 1993.8,-42.35 1993.8,-42.35 1993.8,-75.65 1993.8,-75.65 1993.8,-81.65 1987.8,-87.65 1981.8,-87.65"/>
<text text-anchor="middle" x="1921.8" y="-61.85" font-family="Arial" font-size="12.00" fill="white">Payment Execution</text>
<text text-anchor="middle" x="1921.8" y="-47.6" font-family="Arial" font-size="12.00" fill="white">Fund Distribution</text>
</g>
<!-- decision&#45;&gt;execution -->
<g id="edge10" class="edge">
<title>decision&#45;&gt;execution</title>
<path fill="none" stroke="#666666" stroke-width="1.5" d="M1451.74,-58.16C1691.89,-55.37 1751.08,-54.92 1837.39,-56.82"/>
<polygon fill="#666666" stroke="#666666" stroke-width="1.5" points="1837.14,-60.32 1847.21,-57.05 1837.3,-53.32 1837.14,-60.32"/>
<text text-anchor="middle" x="1653.3" y="-3.25" font-family="Arial" font-size="10.00">Accept Decision</text>
</g>
<!-- appeal&#45;&gt;execution -->
<g id="edge9" class="edge">
<title>appeal&#45;&gt;execution</title>
<path fill="none" stroke="#666666" stroke-width="1.5" d="M1725.41,-119.98C1787.26,-107.8 1819.74,-100.64 1845.96,-92.05"/>
<polygon fill="#666666" stroke="#666666" stroke-width="1.5" points="1846.82,-95.46 1855.12,-88.87 1844.52,-88.84 1846.82,-95.46"/>
<text text-anchor="middle" x="1787.55" y="-117.25" font-family="Arial" font-size="10.00">Process Payments</text>
</g>
<!-- ticket_refund&#45;&gt;execution -->
<g id="edge8" class="edge">
<title>ticket_refund&#45;&gt;execution</title>
<path fill="none" stroke="#666666" stroke-width="1.5" d="M1725.44,-58.31C1780.63,-57.8 1812.16,-57.58 1837.17,-57.65"/>
<polygon fill="#666666" stroke="#666666" stroke-width="1.5" points="1837.09,-61.15 1847.11,-57.7 1837.13,-54.15 1837.09,-61.15"/>
<text text-anchor="middle" x="1787.55" y="-62.25" font-family="Arial" font-size="10.00">Process Refunds</text>
</g>
</g>
</svg>
