<?xml version="1.0" encoding="UTF-8" standalone="no"?>
<!DOCTYPE svg PUBLIC "-//W3C//DTD SVG 1.1//EN"
 "http://www.w3.org/Graphics/SVG/1.1/DTD/svg11.dtd">
<!-- Generated by graphviz version 10.0.1 (0)
 -->
<!-- Title: deployment_flow Pages: 1 -->
<svg width="723pt" height="277pt"
 viewBox="0.00 0.00 723.00 277.40" xmlns="http://www.w3.org/2000/svg" xmlns:xlink="http://www.w3.org/1999/xlink">
<g id="graph0" class="graph" transform="scale(1 1) rotate(0) translate(4 273.4)">
<title>deployment_flow</title>
<polygon fill="white" stroke="none" points="-4,4 -4,-273.4 719,-273.4 719,4 -4,4"/>
<!-- deployment -->
<g id="node1" class="node">
<title>deployment</title>
<path fill="#ffa726" stroke="black" d="M375,-269.4C375,-269.4 255,-269.4 255,-269.4 249,-269.4 243,-263.4 243,-257.4 243,-257.4 243,-224.1 243,-224.1 243,-218.1 249,-212.1 255,-212.1 255,-212.1 375,-212.1 375,-212.1 381,-212.1 387,-218.1 387,-224.1 387,-224.1 387,-257.4 387,-257.4 387,-263.4 381,-269.4 375,-269.4"/>
<text text-anchor="middle" x="315" y="-243.6" font-family="Arial" font-size="12.00" fill="white">Deployment</text>
<text text-anchor="middle" x="315" y="-229.35" font-family="Arial" font-size="12.00" fill="white">Manager</text>
</g>
<!-- xao_token -->
<g id="node2" class="node">
<title>xao_token</title>
<path fill="#4caf50" stroke="black" d="M132,-163.35C132,-163.35 12,-163.35 12,-163.35 6,-163.35 0,-157.35 0,-151.35 0,-151.35 0,-118.05 0,-118.05 0,-112.05 6,-106.05 12,-106.05 12,-106.05 132,-106.05 132,-106.05 138,-106.05 144,-112.05 144,-118.05 144,-118.05 144,-151.35 144,-151.35 144,-157.35 138,-163.35 132,-163.35"/>
<text text-anchor="middle" x="72" y="-137.55" font-family="Arial" font-size="12.00" fill="white">XAO Token</text>
<text text-anchor="middle" x="72" y="-123.3" font-family="Arial" font-size="12.00" fill="white">ERC20</text>
</g>
<!-- deployment&#45;&gt;xao_token -->
<g id="edge1" class="edge">
<title>deployment&#45;&gt;xao_token</title>
<path fill="none" stroke="#666666" stroke-width="1.5" d="M242.75,-240C171.12,-240 72,-240 72,-240 72,-240 72,-176.02 72,-176.02"/>
<polygon fill="#666666" stroke="#666666" stroke-width="1.5" points="75.5,-176.02 72,-166.02 68.5,-176.02 75.5,-176.02"/>
<text text-anchor="middle" x="117" y="-184.6" font-family="Arial" font-size="10.00">Deploy &amp; Initialize</text>
</g>
<!-- governance -->
<g id="node3" class="node">
<title>governance</title>
<path fill="#4caf50" stroke="black" d="M294,-163.35C294,-163.35 174,-163.35 174,-163.35 168,-163.35 162,-157.35 162,-151.35 162,-151.35 162,-118.05 162,-118.05 162,-112.05 168,-106.05 174,-106.05 174,-106.05 294,-106.05 294,-106.05 300,-106.05 306,-112.05 306,-118.05 306,-118.05 306,-151.35 306,-151.35 306,-157.35 300,-163.35 294,-163.35"/>
<text text-anchor="middle" x="234" y="-137.55" font-family="Arial" font-size="12.00" fill="white">Governance</text>
<text text-anchor="middle" x="234" y="-123.3" font-family="Arial" font-size="12.00" fill="white">DAO Control</text>
</g>
<!-- deployment&#45;&gt;governance -->
<g id="edge2" class="edge">
<title>deployment&#45;&gt;governance</title>
<path fill="none" stroke="#666666" stroke-width="1.5" d="M274.5,-211.77C274.5,-211.77 274.5,-175.91 274.5,-175.91"/>
<polygon fill="#666666" stroke="#666666" stroke-width="1.5" points="278,-175.91 274.5,-165.91 271,-175.91 278,-175.91"/>
<text text-anchor="middle" x="273" y="-184.6" font-family="Arial" font-size="10.00">Set Permissions</text>
</g>
<!-- treasury -->
<g id="node4" class="node">
<title>treasury</title>
<path fill="#4caf50" stroke="black" d="M456,-163.35C456,-163.35 336,-163.35 336,-163.35 330,-163.35 324,-157.35 324,-151.35 324,-151.35 324,-118.05 324,-118.05 324,-112.05 330,-106.05 336,-106.05 336,-106.05 456,-106.05 456,-106.05 462,-106.05 468,-112.05 468,-118.05 468,-118.05 468,-151.35 468,-151.35 468,-157.35 462,-163.35 456,-163.35"/>
<text text-anchor="middle" x="396" y="-137.55" font-family="Arial" font-size="12.00" fill="white">Treasury</text>
<text text-anchor="middle" x="396" y="-123.3" font-family="Arial" font-size="12.00" fill="white">Fund Management</text>
</g>
<!-- deployment&#45;&gt;treasury -->
<g id="edge4" class="edge">
<title>deployment&#45;&gt;treasury</title>
<path fill="none" stroke="#666666" stroke-width="1.5" d="M355.5,-211.77C355.5,-211.77 355.5,-175.91 355.5,-175.91"/>
<polygon fill="#666666" stroke="#666666" stroke-width="1.5" points="359,-175.91 355.5,-165.91 352,-175.91 359,-175.91"/>
<text text-anchor="middle" x="433.12" y="-184.6" font-family="Arial" font-size="10.00">Set Parameters</text>
</g>
<!-- factory -->
<g id="node5" class="node">
<title>factory</title>
<path fill="#2196f3" stroke="black" d="M625.52,-163.35C625.52,-163.35 498.48,-163.35 498.48,-163.35 492.48,-163.35 486.48,-157.35 486.48,-151.35 486.48,-151.35 486.48,-118.05 486.48,-118.05 486.48,-112.05 492.48,-106.05 498.48,-106.05 498.48,-106.05 625.52,-106.05 625.52,-106.05 631.52,-106.05 637.52,-112.05 637.52,-118.05 637.52,-118.05 637.52,-151.35 637.52,-151.35 637.52,-157.35 631.52,-163.35 625.52,-163.35"/>
<text text-anchor="middle" x="562" y="-137.55" font-family="Arial" font-size="12.00" fill="white">Factory Layer</text>
<text text-anchor="middle" x="562" y="-123.3" font-family="Arial" font-size="12.00" fill="white">Contract Generation</text>
</g>
<!-- deployment&#45;&gt;factory -->
<g id="edge3" class="edge">
<title>deployment&#45;&gt;factory</title>
<path fill="none" stroke="#666666" stroke-width="1.5" d="M387.44,-240C460.32,-240 562,-240 562,-240 562,-240 562,-176.02 562,-176.02"/>
<polygon fill="#666666" stroke="#666666" stroke-width="1.5" points="565.5,-176.02 562,-166.02 558.5,-176.02 565.5,-176.02"/>
<text text-anchor="middle" x="550.25" y="-184.6" font-family="Arial" font-size="10.00">Configure</text>
</g>
<!-- event_factory -->
<g id="node6" class="node">
<title>event_factory</title>
<path fill="#7b1fa2" stroke="black" d="M541,-57.3C541,-57.3 421,-57.3 421,-57.3 415,-57.3 409,-51.3 409,-45.3 409,-45.3 409,-12 409,-12 409,-6 415,0 421,0 421,0 541,0 541,0 547,0 553,-6 553,-12 553,-12 553,-45.3 553,-45.3 553,-51.3 547,-57.3 541,-57.3"/>
<text text-anchor="middle" x="481" y="-31.5" font-family="Arial" font-size="12.00" fill="white">Event Factory</text>
<text text-anchor="middle" x="481" y="-17.25" font-family="Arial" font-size="12.00" fill="white">Event Creation</text>
</g>
<!-- factory&#45;&gt;event_factory -->
<g id="edge5" class="edge">
<title>factory&#45;&gt;event_factory</title>
<path fill="none" stroke="#666666" stroke-width="1.5" d="M519.74,-105.72C519.74,-105.72 519.74,-69.86 519.74,-69.86"/>
<polygon fill="#666666" stroke="#666666" stroke-width="1.5" points="523.24,-69.86 519.74,-59.86 516.24,-69.86 523.24,-69.86"/>
<text text-anchor="middle" x="503.5" y="-78.55" font-family="Arial" font-size="10.00">Generate</text>
</g>
<!-- artist_factory -->
<g id="node7" class="node">
<title>artist_factory</title>
<path fill="#7b1fa2" stroke="black" d="M703,-57.3C703,-57.3 583,-57.3 583,-57.3 577,-57.3 571,-51.3 571,-45.3 571,-45.3 571,-12 571,-12 571,-6 577,0 583,0 583,0 703,0 703,0 709,0 715,-6 715,-12 715,-12 715,-45.3 715,-45.3 715,-51.3 709,-57.3 703,-57.3"/>
<text text-anchor="middle" x="643" y="-31.5" font-family="Arial" font-size="12.00" fill="white">Artist Factory</text>
<text text-anchor="middle" x="643" y="-17.25" font-family="Arial" font-size="12.00" fill="white">Artist Management</text>
</g>
<!-- factory&#45;&gt;artist_factory -->
<g id="edge6" class="edge">
<title>factory&#45;&gt;artist_factory</title>
<path fill="none" stroke="#666666" stroke-width="1.5" d="M604.26,-105.72C604.26,-105.72 604.26,-69.86 604.26,-69.86"/>
<polygon fill="#666666" stroke="#666666" stroke-width="1.5" points="607.76,-69.86 604.26,-59.86 600.76,-69.86 607.76,-69.86"/>
<text text-anchor="middle" x="665.5" y="-78.55" font-family="Arial" font-size="10.00">Generate</text>
</g>
</g>
</svg>
