<?xml version="1.0" encoding="UTF-8" standalone="no"?>
<!DOCTYPE svg PUBLIC "-//W3C//DTD SVG 1.1//EN"
 "http://www.w3.org/Graphics/SVG/1.1/DTD/svg11.dtd">
<!-- Generated by graphviz version 10.0.1 (0)
 -->
<!-- Title: event_creation Pages: 1 -->
<svg width="1494pt" height="65pt"
 viewBox="0.00 0.00 1493.60 65.30" xmlns="http://www.w3.org/2000/svg" xmlns:xlink="http://www.w3.org/1999/xlink">
<g id="graph0" class="graph" transform="scale(1 1) rotate(0) translate(4 61.3)">
<title>event_creation</title>
<polygon fill="white" stroke="none" points="-4,4 -4,-61.3 1489.6,-61.3 1489.6,4 -4,4"/>
<!-- owner -->
<g id="node1" class="node">
<title>owner</title>
<path fill="#ff5722" stroke="black" d="M132,-57.3C132,-57.3 12,-57.3 12,-57.3 6,-57.3 0,-51.3 0,-45.3 0,-45.3 0,-12 0,-12 0,-6 6,0 12,0 12,0 132,0 132,0 138,0 144,-6 144,-12 144,-12 144,-45.3 144,-45.3 144,-51.3 138,-57.3 132,-57.3"/>
<text text-anchor="middle" x="72" y="-31.5" font-family="Arial" font-size="12.00" fill="white">Event Owner</text>
<text text-anchor="middle" x="72" y="-17.25" font-family="Arial" font-size="12.00" fill="white">Initiates Creation</text>
</g>
<!-- event_factory -->
<g id="node2" class="node">
<title>event_factory</title>
<path fill="#2196f3" stroke="black" d="M426.3,-57.3C426.3,-57.3 297.75,-57.3 297.75,-57.3 291.75,-57.3 285.75,-51.3 285.75,-45.3 285.75,-45.3 285.75,-12 285.75,-12 285.75,-6 291.75,0 297.75,0 297.75,0 426.3,0 426.3,0 432.3,0 438.3,-6 438.3,-12 438.3,-12 438.3,-45.3 438.3,-45.3 438.3,-51.3 432.3,-57.3 426.3,-57.3"/>
<text text-anchor="middle" x="362.03" y="-31.5" font-family="Arial" font-size="12.00" fill="white">Event Factory</text>
<text text-anchor="middle" x="362.03" y="-17.25" font-family="Arial" font-size="12.00" fill="white">Generates Contracts</text>
</g>
<!-- owner&#45;&gt;event_factory -->
<g id="edge1" class="edge">
<title>owner&#45;&gt;event_factory</title>
<path fill="none" stroke="#666666" stroke-width="1.5" d="M144.47,-28.65C173.69,-28.65 206.38,-28.65 273.29,-28.65"/>
<polygon fill="#666666" stroke="#666666" stroke-width="1.5" points="272.99,-32.15 282.99,-28.65 272.99,-25.15 272.99,-32.15"/>
<text text-anchor="middle" x="214.88" y="-31.9" font-family="Arial" font-size="10.00">Create Event Request</text>
</g>
<!-- parent_event -->
<g id="node3" class="node">
<title>parent_event</title>
<path fill="#4caf50" stroke="black" d="M685.05,-57.3C685.05,-57.3 565.05,-57.3 565.05,-57.3 559.05,-57.3 553.05,-51.3 553.05,-45.3 553.05,-45.3 553.05,-12 553.05,-12 553.05,-6 559.05,0 565.05,0 565.05,0 685.05,0 685.05,0 691.05,0 697.05,-6 697.05,-12 697.05,-12 697.05,-45.3 697.05,-45.3 697.05,-51.3 691.05,-57.3 685.05,-57.3"/>
<text text-anchor="middle" x="625.05" y="-31.5" font-family="Arial" font-size="12.00" fill="white">Parent Event</text>
<text text-anchor="middle" x="625.05" y="-17.25" font-family="Arial" font-size="12.00" fill="white">Main Contract</text>
</g>
<!-- event_factory&#45;&gt;parent_event -->
<g id="edge2" class="edge">
<title>event_factory&#45;&gt;parent_event</title>
<path fill="none" stroke="#666666" stroke-width="1.5" d="M438.47,-28.65C461.98,-28.65 490.37,-28.65 540.48,-28.65"/>
<polygon fill="#666666" stroke="#666666" stroke-width="1.5" points="540.32,-32.15 550.32,-28.65 540.32,-25.15 540.32,-32.15"/>
<text text-anchor="middle" x="495.68" y="-31.9" font-family="Arial" font-size="10.00">Deploy Contract</text>
</g>
<!-- event_explorer -->
<g id="node4" class="node">
<title>event_explorer</title>
<path fill="#9c27b0" stroke="black" d="M936.3,-57.3C936.3,-57.3 816.3,-57.3 816.3,-57.3 810.3,-57.3 804.3,-51.3 804.3,-45.3 804.3,-45.3 804.3,-12 804.3,-12 804.3,-6 810.3,0 816.3,0 816.3,0 936.3,0 936.3,0 942.3,0 948.3,-6 948.3,-12 948.3,-12 948.3,-45.3 948.3,-45.3 948.3,-51.3 942.3,-57.3 936.3,-57.3"/>
<text text-anchor="middle" x="876.3" y="-31.5" font-family="Arial" font-size="12.00" fill="white">Event Explorer</text>
<text text-anchor="middle" x="876.3" y="-17.25" font-family="Arial" font-size="12.00" fill="white">Tracking System</text>
</g>
<!-- parent_event&#45;&gt;event_explorer -->
<g id="edge3" class="edge">
<title>parent_event&#45;&gt;event_explorer</title>
<path fill="none" stroke="#666666" stroke-width="1.5" d="M697.42,-28.65C742.19,-28.65 769.79,-28.65 791.57,-28.65"/>
<polygon fill="#666666" stroke="#666666" stroke-width="1.5" points="791.53,-32.15 801.53,-28.65 791.53,-25.15 791.53,-32.15"/>
<text text-anchor="middle" x="750.68" y="-31.9" font-family="Arial" font-size="10.00">Register Event</text>
</g>
<!-- artist_factory -->
<g id="node5" class="node">
<title>artist_factory</title>
<path fill="#2196f3" stroke="black" d="M1190.55,-57.3C1190.55,-57.3 1070.55,-57.3 1070.55,-57.3 1064.55,-57.3 1058.55,-51.3 1058.55,-45.3 1058.55,-45.3 1058.55,-12 1058.55,-12 1058.55,-6 1064.55,0 1070.55,0 1070.55,0 1190.55,0 1190.55,0 1196.55,0 1202.55,-6 1202.55,-12 1202.55,-12 1202.55,-45.3 1202.55,-45.3 1202.55,-51.3 1196.55,-57.3 1190.55,-57.3"/>
<text text-anchor="middle" x="1130.55" y="-31.5" font-family="Arial" font-size="12.00" fill="white">Artist Factory</text>
<text text-anchor="middle" x="1130.55" y="-17.25" font-family="Arial" font-size="12.00" fill="white">Artist Management</text>
</g>
<!-- event_explorer&#45;&gt;artist_factory -->
<g id="edge4" class="edge">
<title>event_explorer&#45;&gt;artist_factory</title>
<path fill="none" stroke="#666666" stroke-width="1.5" d="M948.79,-28.65C995.3,-28.65 1023.59,-28.65 1045.92,-28.65"/>
<polygon fill="#666666" stroke="#666666" stroke-width="1.5" points="1045.87,-32.15 1055.87,-28.65 1045.87,-25.15 1045.87,-32.15"/>
<text text-anchor="middle" x="1003.43" y="-31.9" font-family="Arial" font-size="10.00">Request Artists</text>
</g>
<!-- artist_contract -->
<g id="node6" class="node">
<title>artist_contract</title>
<path fill="#4caf50" stroke="black" d="M1473.6,-57.3C1473.6,-57.3 1345.05,-57.3 1345.05,-57.3 1339.05,-57.3 1333.05,-51.3 1333.05,-45.3 1333.05,-45.3 1333.05,-12 1333.05,-12 1333.05,-6 1339.05,0 1345.05,0 1345.05,0 1473.6,0 1473.6,0 1479.6,0 1485.6,-6 1485.6,-12 1485.6,-12 1485.6,-45.3 1485.6,-45.3 1485.6,-51.3 1479.6,-57.3 1473.6,-57.3"/>
<text text-anchor="middle" x="1409.33" y="-31.5" font-family="Arial" font-size="12.00" fill="white">Artist Contract</text>
<text text-anchor="middle" x="1409.33" y="-17.25" font-family="Arial" font-size="12.00" fill="white">Performance Control</text>
</g>
<!-- artist_factory&#45;&gt;artist_contract -->
<g id="edge5" class="edge">
<title>artist_factory&#45;&gt;artist_contract</title>
<path fill="none" stroke="#666666" stroke-width="1.5" d="M1202.93,-28.65C1261.27,-28.65 1294.51,-28.65 1320.75,-28.65"/>
<polygon fill="#666666" stroke="#666666" stroke-width="1.5" points="1320.49,-32.15 1330.49,-28.65 1320.49,-25.15 1320.49,-32.15"/>
<text text-anchor="middle" x="1267.8" y="-31.9" font-family="Arial" font-size="10.00">Generate Contracts</text>
</g>
</g>
</svg>
