<?xml version="1.0" encoding="UTF-8" standalone="no"?>
<!DOCTYPE svg PUBLIC "-//W3C//DTD SVG 1.1//EN"
 "http://www.w3.org/Graphics/SVG/1.1/DTD/svg11.dtd">
<!-- Generated by graphviz version 10.0.1 (0)
 -->
<!-- Title: revenue_distribution Pages: 1 -->
<svg width="1180pt" height="80pt"
 viewBox="0.00 0.00 1179.50 79.55" xmlns="http://www.w3.org/2000/svg" xmlns:xlink="http://www.w3.org/1999/xlink">
<g id="graph0" class="graph" transform="scale(1 1) rotate(0) translate(4 75.55)">
<title>revenue_distribution</title>
<polygon fill="white" stroke="none" points="-4,4 -4,-75.55 1175.5,-75.55 1175.5,4 -4,4"/>
<!-- ticket_sale -->
<g id="node1" class="node">
<title>ticket_sale</title>
<path fill="#ff5722" stroke="black" d="M132,-64.42C132,-64.42 12,-64.42 12,-64.42 6,-64.42 0,-58.42 0,-52.42 0,-52.42 0,-19.12 0,-19.12 0,-13.12 6,-7.12 12,-7.12 12,-7.12 132,-7.12 132,-7.12 138,-7.12 144,-13.12 144,-19.12 144,-19.12 144,-52.42 144,-52.42 144,-58.42 138,-64.42 132,-64.42"/>
<text text-anchor="middle" x="72" y="-38.62" font-family="Arial" font-size="12.00" fill="white">Ticket Sale</text>
<text text-anchor="middle" x="72" y="-24.38" font-family="Arial" font-size="12.00" fill="white">Revenue Source</text>
</g>
<!-- parent_event -->
<g id="node2" class="node">
<title>parent_event</title>
<path fill="#4caf50" stroke="black" d="M378.75,-71.55C378.75,-71.55 258.75,-71.55 258.75,-71.55 252.75,-71.55 246.75,-65.55 246.75,-59.55 246.75,-59.55 246.75,-12 246.75,-12 246.75,-6 252.75,0 258.75,0 258.75,0 378.75,0 378.75,0 384.75,0 390.75,-6 390.75,-12 390.75,-12 390.75,-59.55 390.75,-59.55 390.75,-65.55 384.75,-71.55 378.75,-71.55"/>
<text text-anchor="middle" x="318.75" y="-45.75" font-family="Arial" font-size="12.00" fill="white">Parent Event</text>
<text text-anchor="middle" x="318.75" y="-31.5" font-family="Arial" font-size="12.00" fill="white">Contract</text>
<text text-anchor="middle" x="318.75" y="-17.25" font-family="Arial" font-size="12.00" fill="white">Revenue Collection</text>
</g>
<!-- ticket_sale&#45;&gt;parent_event -->
<g id="edge1" class="edge">
<title>ticket_sale&#45;&gt;parent_event</title>
<path fill="none" stroke="#666666" stroke-width="1.5" d="M144.37,-35.77C165.5,-35.77 190.94,-35.77 234.42,-35.77"/>
<polygon fill="#666666" stroke="#666666" stroke-width="1.5" points="234.24,-39.28 244.24,-35.78 234.24,-32.28 234.24,-39.28"/>
<text text-anchor="middle" x="195.38" y="-39.02" font-family="Arial" font-size="10.00">Sale Revenue</text>
</g>
<!-- treasury -->
<g id="node3" class="node">
<title>treasury</title>
<path fill="#ffc107" stroke="black" d="M624,-64.42C624,-64.42 504,-64.42 504,-64.42 498,-64.42 492,-58.42 492,-52.42 492,-52.42 492,-19.12 492,-19.12 492,-13.12 498,-7.12 504,-7.12 504,-7.12 624,-7.12 624,-7.12 630,-7.12 636,-13.12 636,-19.12 636,-19.12 636,-52.42 636,-52.42 636,-58.42 630,-64.42 624,-64.42"/>
<text text-anchor="middle" x="564" y="-38.62" font-family="Arial" font-size="12.00">XAO Treasury</text>
<text text-anchor="middle" x="564" y="-24.38" font-family="Arial" font-size="12.00">Fund Management</text>
</g>
<!-- parent_event&#45;&gt;treasury -->
<g id="edge2" class="edge">
<title>parent_event&#45;&gt;treasury</title>
<path fill="none" stroke="#666666" stroke-width="1.5" d="M391,-35.77C411.82,-35.77 436.9,-35.77 479.43,-35.77"/>
<polygon fill="#666666" stroke="#666666" stroke-width="1.5" points="479.31,-39.28 489.31,-35.78 479.31,-32.28 479.31,-39.28"/>
<text text-anchor="middle" x="441.38" y="-39.02" font-family="Arial" font-size="10.00">Collect Funds</text>
</g>
<!-- splitter -->
<g id="node4" class="node">
<title>splitter</title>
<path fill="#2196f3" stroke="black" d="M885.75,-64.42C885.75,-64.42 765.75,-64.42 765.75,-64.42 759.75,-64.42 753.75,-58.42 753.75,-52.42 753.75,-52.42 753.75,-19.12 753.75,-19.12 753.75,-13.12 759.75,-7.12 765.75,-7.12 765.75,-7.12 885.75,-7.12 885.75,-7.12 891.75,-7.12 897.75,-13.12 897.75,-19.12 897.75,-19.12 897.75,-52.42 897.75,-52.42 897.75,-58.42 891.75,-64.42 885.75,-64.42"/>
<text text-anchor="middle" x="825.75" y="-38.62" font-family="Arial" font-size="12.00" fill="white">Revenue Splitter</text>
<text text-anchor="middle" x="825.75" y="-24.38" font-family="Arial" font-size="12.00" fill="white">Distribution Logic</text>
</g>
<!-- treasury&#45;&gt;splitter -->
<g id="edge3" class="edge">
<title>treasury&#45;&gt;splitter</title>
<path fill="none" stroke="#666666" stroke-width="1.5" d="M636.3,-35.77C687.27,-35.77 717.28,-35.77 741.01,-35.77"/>
<polygon fill="#666666" stroke="#666666" stroke-width="1.5" points="741.01,-39.28 751.01,-35.78 741.01,-32.28 741.01,-39.28"/>
<text text-anchor="middle" x="694.88" y="-39.02" font-family="Arial" font-size="10.00">Calculate Shares</text>
</g>
<!-- escrow -->
<g id="node5" class="node">
<title>escrow</title>
<path fill="#9c27b0" stroke="black" d="M1159.5,-64.42C1159.5,-64.42 1039.5,-64.42 1039.5,-64.42 1033.5,-64.42 1027.5,-58.42 1027.5,-52.42 1027.5,-52.42 1027.5,-19.12 1027.5,-19.12 1027.5,-13.12 1033.5,-7.12 1039.5,-7.12 1039.5,-7.12 1159.5,-7.12 1159.5,-7.12 1165.5,-7.12 1171.5,-13.12 1171.5,-19.12 1171.5,-19.12 1171.5,-52.42 1171.5,-52.42 1171.5,-58.42 1165.5,-64.42 1159.5,-64.42"/>
<text text-anchor="middle" x="1099.5" y="-38.62" font-family="Arial" font-size="12.00" fill="white">Artist Escrow</text>
<text text-anchor="middle" x="1099.5" y="-24.38" font-family="Arial" font-size="12.00" fill="white">Secure Payments</text>
</g>
<!-- splitter&#45;&gt;escrow -->
<g id="edge4" class="edge">
<title>splitter&#45;&gt;escrow</title>
<path fill="none" stroke="#666666" stroke-width="1.5" d="M898.07,-35.77C956.64,-35.77 989.27,-35.77 1015.29,-35.77"/>
<polygon fill="#666666" stroke="#666666" stroke-width="1.5" points="1014.96,-39.28 1024.96,-35.78 1014.96,-32.28 1014.96,-39.28"/>
<text text-anchor="middle" x="962.62" y="-39.02" font-family="Arial" font-size="10.00">Distribute Revenue</text>
</g>
</g>
</svg>
