<?xml version="1.0" encoding="UTF-8" standalone="no"?>
<!DOCTYPE svg PUBLIC "-//W3C//DTD SVG 1.1//EN"
 "http://www.w3.org/Graphics/SVG/1.1/DTD/svg11.dtd">
<!-- Generated by graphviz version 10.0.1 (0)
 -->
<!-- Title: ticket_sales Pages: 1 -->
<svg width="935pt" height="155pt"
 viewBox="0.00 0.00 934.55 154.88" xmlns="http://www.w3.org/2000/svg" xmlns:xlink="http://www.w3.org/1999/xlink">
<g id="graph0" class="graph" transform="scale(1 1) rotate(0) translate(4 150.88)">
<title>ticket_sales</title>
<polygon fill="white" stroke="none" points="-4,4 -4,-150.88 930.55,-150.88 930.55,4 -4,4"/>
<!-- buyer -->
<g id="node1" class="node">
<title>buyer</title>
<path fill="#ff5722" stroke="black" d="M132,-75.75C132,-75.75 12,-75.75 12,-75.75 6,-75.75 0,-69.75 0,-63.75 0,-63.75 0,-30.45 0,-30.45 0,-24.45 6,-18.45 12,-18.45 12,-18.45 132,-18.45 132,-18.45 138,-18.45 144,-24.45 144,-30.45 144,-30.45 144,-63.75 144,-63.75 144,-69.75 138,-75.75 132,-75.75"/>
<text text-anchor="middle" x="72" y="-49.95" font-family="Arial" font-size="12.00" fill="white">Ticket Buyer</text>
<text text-anchor="middle" x="72" y="-35.7" font-family="Arial" font-size="12.00" fill="white">Purchase Request</text>
</g>
<!-- parent_event -->
<g id="node2" class="node">
<title>parent_event</title>
<path fill="#4caf50" stroke="black" d="M402.3,-82.88C402.3,-82.88 279,-82.88 279,-82.88 273,-82.88 267,-76.88 267,-70.88 267,-70.88 267,-23.33 267,-23.33 267,-17.33 273,-11.33 279,-11.33 279,-11.33 402.3,-11.33 402.3,-11.33 408.3,-11.33 414.3,-17.33 414.3,-23.33 414.3,-23.33 414.3,-70.88 414.3,-70.88 414.3,-76.88 408.3,-82.88 402.3,-82.88"/>
<text text-anchor="middle" x="340.65" y="-57.08" font-family="Arial" font-size="12.00" fill="white">Parent Event</text>
<text text-anchor="middle" x="340.65" y="-42.83" font-family="Arial" font-size="12.00" fill="white">Contract</text>
<text text-anchor="middle" x="340.65" y="-28.58" font-family="Arial" font-size="12.00" fill="white">Validation &amp; Minting</text>
</g>
<!-- buyer&#45;&gt;parent_event -->
<g id="edge1" class="edge">
<title>buyer&#45;&gt;parent_event</title>
<path fill="none" stroke="#666666" stroke-width="1.5" d="M144.4,-43.19C169.67,-42.63 199.06,-43.1 254.43,-44.62"/>
<polygon fill="#666666" stroke="#666666" stroke-width="1.5" points="254.29,-48.11 264.38,-44.89 254.48,-41.12 254.29,-48.11"/>
<text text-anchor="middle" x="205.5" y="-50.35" font-family="Arial" font-size="10.00">Purchase Request</text>
</g>
<!-- nft -->
<g id="node3" class="node">
<title>nft</title>
<path fill="#ffc107" stroke="black" d="M651.3,-146.88C651.3,-146.88 531.3,-146.88 531.3,-146.88 525.3,-146.88 519.3,-140.88 519.3,-134.88 519.3,-134.88 519.3,-87.33 519.3,-87.33 519.3,-81.33 525.3,-75.33 531.3,-75.33 531.3,-75.33 651.3,-75.33 651.3,-75.33 657.3,-75.33 663.3,-81.33 663.3,-87.33 663.3,-87.33 663.3,-134.88 663.3,-134.88 663.3,-140.88 657.3,-146.88 651.3,-146.88"/>
<text text-anchor="middle" x="591.3" y="-121.08" font-family="Arial" font-size="12.00">NFT Ticket</text>
<text text-anchor="middle" x="591.3" y="-106.83" font-family="Arial" font-size="12.00">ERC1155/721</text>
<text text-anchor="middle" x="591.3" y="-92.58" font-family="Arial" font-size="12.00">Ownership Proof</text>
</g>
<!-- parent_event&#45;&gt;nft -->
<g id="edge2" class="edge">
<title>parent_event&#45;&gt;nft</title>
<path fill="none" stroke="#666666" stroke-width="1.5" d="M409.46,-83.34C454.64,-106.36 479.74,-116.08 507.04,-118.18"/>
<polygon fill="#666666" stroke="#666666" stroke-width="1.5" points="506.55,-121.67 516.67,-118.55 506.81,-114.67 506.55,-121.67"/>
<text text-anchor="middle" x="466.8" y="-91.35" font-family="Arial" font-size="10.00">Mint Ticket</text>
</g>
<!-- explorer -->
<g id="node4" class="node">
<title>explorer</title>
<path fill="#9c27b0" stroke="black" d="M651.3,-57.75C651.3,-57.75 531.3,-57.75 531.3,-57.75 525.3,-57.75 519.3,-51.75 519.3,-45.75 519.3,-45.75 519.3,-12.45 519.3,-12.45 519.3,-6.45 525.3,-0.45 531.3,-0.45 531.3,-0.45 651.3,-0.45 651.3,-0.45 657.3,-0.45 663.3,-6.45 663.3,-12.45 663.3,-12.45 663.3,-45.75 663.3,-45.75 663.3,-51.75 657.3,-57.75 651.3,-57.75"/>
<text text-anchor="middle" x="591.3" y="-31.95" font-family="Arial" font-size="12.00" fill="white">Event Explorer</text>
<text text-anchor="middle" x="591.3" y="-17.7" font-family="Arial" font-size="12.00" fill="white">Sales Tracking</text>
</g>
<!-- parent_event&#45;&gt;explorer -->
<g id="edge3" class="edge">
<title>parent_event&#45;&gt;explorer</title>
<path fill="none" stroke="#666666" stroke-width="1.5" d="M414.35,-14.67C451.81,-0.04 474.72,3.11 507.14,-3.52"/>
<polygon fill="#666666" stroke="#666666" stroke-width="1.5" points="506.3,-6.91 516.83,-5.75 507.87,-0.09 506.3,-6.91"/>
<text text-anchor="middle" x="466.8" y="-32.35" font-family="Arial" font-size="10.00">Update Status</text>
</g>
<!-- token -->
<g id="node5" class="node">
<title>token</title>
<path fill="#ffc107" stroke="black" d="M914.55,-139.75C914.55,-139.75 794.55,-139.75 794.55,-139.75 788.55,-139.75 782.55,-133.75 782.55,-127.75 782.55,-127.75 782.55,-94.45 782.55,-94.45 782.55,-88.45 788.55,-82.45 794.55,-82.45 794.55,-82.45 914.55,-82.45 914.55,-82.45 920.55,-82.45 926.55,-88.45 926.55,-94.45 926.55,-94.45 926.55,-127.75 926.55,-127.75 926.55,-133.75 920.55,-139.75 914.55,-139.75"/>
<text text-anchor="middle" x="854.55" y="-113.95" font-family="Arial" font-size="12.00">XAO Token</text>
<text text-anchor="middle" x="854.55" y="-99.7" font-family="Arial" font-size="12.00">Payment System</text>
</g>
<!-- nft&#45;&gt;token -->
<g id="edge4" class="edge">
<title>nft&#45;&gt;token</title>
<path fill="none" stroke="#666666" stroke-width="1.5" d="M663.41,-114.01C715.5,-116.05 745.84,-116.94 769.94,-116.7"/>
<polygon fill="#666666" stroke="#666666" stroke-width="1.5" points="769.86,-120.2 779.79,-116.51 769.73,-113.2 769.86,-120.2"/>
<text text-anchor="middle" x="722.92" y="-114.35" font-family="Arial" font-size="10.00">Process Payment</text>
</g>
</g>
</svg>
